<?xml version="1.0" standalone="no"?>
<!DOCTYPE svg PUBLIC "-//W3C//DTD SVG 20010904//EN"
 "http://www.w3.org/TR/2001/REC-SVG-20010904/DTD/svg10.dtd">
<svg version="1.0" xmlns="http://www.w3.org/2000/svg"
 width="666.000000pt" height="375.000000pt" viewBox="0 0 666.000000 375.000000"
 preserveAspectRatio="xMidYMid meet">

<g transform="translate(0.000000,375.000000) scale(0.100000,-0.100000)"
fill="#000000" stroke="none">
<path d="M3110 3163 c-411 -65 -718 -270 -914 -609 -103 -180 -146 -336 -153
-560 -9 -251 28 -415 139 -624 118 -224 293 -394 523 -510 154 -78 339 -130
465 -130 l47 0 6 45 c4 24 18 73 33 107 35 84 31 186 -11 268 -19 38 -29 75
-33 121 l-5 67 -43 6 c-64 8 -134 48 -192 107 -83 84 -102 145 -57 175 34 22
116 13 190 -22 53 -25 135 -101 135 -126 0 -9 3 -9 13 1 8 8 12 41 11 94 0 71
-5 92 -34 157 -41 92 -51 184 -26 256 20 60 13 68 -67 83 -111 22 -201 74
-298 172 -130 131 -170 231 -113 284 48 44 153 44 283 0 86 -29 103 -39 177
-102 l61 -52 42 59 c141 201 431 255 431 81 0 -35 -34 -141 -67 -205 -54 -107
-254 -267 -354 -284 -41 -7 -44 -10 -57 -52 -20 -68 -10 -154 26 -227 18 -34
34 -79 38 -101 l6 -40 28 32 c46 52 124 89 191 90 103 1 125 -47 64 -139 -61
-91 -181 -157 -284 -157 l-48 1 -7 -46 c-13 -98 -7 -145 27 -213 30 -60 32
-72 32 -165 0 -83 -4 -108 -22 -146 -12 -26 -25 -66 -29 -89 l-7 -43 104 6
c191 11 397 81 567 193 108 71 271 233 342 338 94 140 161 307 191 476 16 92
16 332 0 419 -72 375 -300 690 -631 869 -97 53 -260 107 -380 127 -86 13 -277
18 -340 8z"/>
</g>
</svg>
